<svg width="53" height="53" viewBox="0 0 53 53" fill="none" xmlns="http://www.w3.org/2000/svg">
<path d="M37.5417 18.7708C39.3711 18.7708 40.8542 17.2878 40.8542 15.4583C40.8542 13.6289 39.3711 12.1458 37.5417 12.1458C35.7122 12.1458 34.2292 13.6289 34.2292 15.4583C34.2292 17.2878 35.7122 18.7708 37.5417 18.7708Z" fill="black"/>
<path d="M35.3333 6.625C41.4283 6.625 46.375 11.5717 46.375 17.6667V35.3333C46.375 41.4283 41.4283 46.375 35.3333 46.375H17.6667C11.5717 46.375 6.625 41.4283 6.625 35.3333V17.6667C6.625 11.5717 11.5717 6.625 17.6667 6.625H26.5H35.3333Z" stroke="black" stroke-width="2" stroke-linecap="round" stroke-linejoin="round"/>
<path d="M26.5 17.6667C31.3804 17.6667 35.3333 21.6196 35.3333 26.5C35.3333 31.3804 31.3804 35.3333 26.5 35.3333C21.6196 35.3333 17.6667 31.3804 17.6667 26.5C17.6667 21.6196 21.6196 17.6667 26.5 17.6667Z" stroke="black" stroke-width="2" stroke-linecap="round" stroke-linejoin="round"/>
</svg>
